HIERARCHY
ROOT Hips
{
	OFFSET 0.000000 0.000000 0.000000
	CHANNELS 6 Xposition Yposition Zposition Zrotation Yrotation Xrotation 
	JOINT LHipJoint
	{
		OFFSET 0.000000 0.000000 0.000000
		CHANNELS 3 Zrotation Yrotation Xrotation
		JOINT LeftUpLeg
		{
			OFFSET 1.363060 -1.794630 0.839290
			CHANNELS 3 Zrotation Yrotation Xrotation
			JOINT LeftLeg
			{
				OFFSET 2.448110 -6.726130 0.000000
				CHANNELS 3 Zrotation Yrotation Xrotation
				JOINT LeftFoot
				{
					OFFSET 2.562200 -7.039590 0.000000
					CHANNELS 3 Zrotation Yrotation Xrotation
					JOINT LeftToeBase
					{
						OFFSET 0.157640 -0.433110 2.322550
						CHANNELS 3 Zrotation Yrotation Xrotation
						End Site
						{
							OFFSET 0.000000 0.000000 0.000000
						}
					}
				}
			}
		}
	}
	JOINT RHipJoint
	{
		OFFSET 0.000000 0.000000 0.000000
		CHANNELS 3 Zrotation Yrotation Xrotation
		JOINT RightUpLeg
		{
			OFFSET -1.305520 -1.794630 0.839290
			CHANNELS 3 Zrotation Yrotation Xrotation
			JOINT RightLeg
			{
				OFFSET -2.542530 -6.985550 0.000000
				CHANNELS 3 Zrotation Yrotation Xrotation
				JOINT RightFoot
				{
					OFFSET -2.568260 -7.056230 0.000000
					CHANNELS 3 Zrotation Yrotation Xrotation
					JOINT RightToeBase
					{
						OFFSET -0.164730 -0.452590 2.363150
						CHANNELS 3 Zrotation Yrotation Xrotation
						End Site
						{
							OFFSET 0.000000 0.000000 0.000000
						}
					}
				}
			}
		}
	}
	JOINT LowerBack
	{
		OFFSET 0.000000 0.000000 0.000000
		CHANNELS 3 Zrotation Yrotation Xrotation
		JOINT Spine
		{
			OFFSET 0.028270 2.035590 -0.193380
			CHANNELS 3 Zrotation Yrotation Xrotation
			JOINT Spine1
			{
				OFFSET 0.056720 2.048850 -0.042750
				CHANNELS 3 Zrotation Yrotation Xrotation
				JOINT Neck
				{
					OFFSET 0.000000 0.000000 0.000000
					CHANNELS 3 Zrotation Yrotation Xrotation
					JOINT Neck1
					{
						OFFSET -0.054170 1.746240 0.172020
						CHANNELS 3 Zrotation Yrotation Xrotation
						JOINT Head
						{
							OFFSET 0.104070 1.761360 -0.123970
							CHANNELS 3 Zrotation Yrotation Xrotation
							End Site
							{
								OFFSET 0.000000 0.000000 0.000000
							}
						}
					}
				}
				JOINT LeftShoulder
				{
					OFFSET 0.000000 0.000000 0.000000
					CHANNELS 3 Zrotation Yrotation Xrotation
					JOINT LeftArm
					{
						OFFSET 3.362410 1.200890 -0.311210
						CHANNELS 3 Zrotation Yrotation Xrotation
						JOINT LeftForeArm
						{
							OFFSET 4.983000 -0.000000 -0.000000
							CHANNELS 3 Zrotation Yrotation Xrotation
							JOINT LeftHand
							{
								OFFSET 3.483560 -0.000000 -0.000000
								CHANNELS 3 Zrotation Yrotation Xrotation
								JOINT LeftFingerBase
								{
									OFFSET 0.000000 0.000000 0.000000
									CHANNELS 3 Zrotation Yrotation Xrotation
									JOINT LeftHandIndex1
									{
										OFFSET 0.715260 -0.000000 -0.000000
										CHANNELS 3 Zrotation Yrotation Xrotation
										End Site
										{
											OFFSET 0.000000 0.000000 0.000000
										}
									}
								}
								JOINT LThumb
								{
									OFFSET 0.000000 0.000000 0.000000
									CHANNELS 3 Zrotation Yrotation Xrotation
									End Site
									{
										OFFSET 0.000000 0.000000 0.000000
									}
								}
							}
						}
					}
				}
				JOINT RightShoulder
				{
					OFFSET 0.000000 0.000000 0.000000
					CHANNELS 3 Zrotation Yrotation Xrotation
					JOINT RightArm
					{
						OFFSET -3.136600 1.374050 -0.404650
						CHANNELS 3 Zrotation Yrotation Xrotation
						JOINT RightForeArm
						{
							OFFSET -5.241900 -0.000000 -0.000000
							CHANNELS 3 Zrotation Yrotation Xrotation
							JOINT RightHand
							{
								OFFSET -3.444170 -0.000000 -0.000000
								CHANNELS 3 Zrotation Yrotation Xrotation
								JOINT RightFingerBase
								{
									OFFSET 0.000000 0.000000 0.000000
									CHANNELS 3 Zrotation Yrotation Xrotation
									JOINT RightHandIndex1
									{
										OFFSET -0.622530 -0.000000 -0.000000
										CHANNELS 3 Zrotation Yrotation Xrotation
										End Site
										{
											OFFSET 0.000000 0.000000 0.000000
										}
									}
								}
								JOINT RThumb
								{
									OFFSET 0.000000 0.000000 0.000000
									CHANNELS 3 Zrotation Yrotation Xrotation
									End Site
									{
										OFFSET 0.000000 0.000000 0.000000
									}
								}
							}
						}
					}
				}
			}
		}
	}
}
MOTION
Frames: 6
Frame Time: 0.033333
-0.570311 17.612174 0.513813 -0.927446 -0.661624 0.400183 -14.640898 6.941857 -0.582528 -1.518677 10.520504 -19.861493 -9.722012 4.374468 18.721961 0.116149 10.732538 4.442340 -0.139815 0.098959 -29.719232 15.918434 -11.658355 8.619130 4.916026 -18.484949 -23.720863 -18.211000 -16.319938 35.824314 -3.414923 -37.211774 35.690446 0.068678 -0.000027 -57.605451 0.905557 -6.368716 -2.961748 -4.275239 3.226385 -2.643162 -6.177833 2.606939 5.047546 9.553937 -10.113487 -11.621939 -1.043410 -0.194550 -0.910577 0.003628 -0.003564 -0.022805 -1.054667 26.706028 8.631940 -68.229275 0.912736 -26.521460 -7.568930 -17.086420 1.273919 1.542178 3.495581 0.062719 -0.298139 0.086825 -0.002187 -0.047822 -0.012311 0.006802 -0.001265 0.046669 -0.103487 14.993835 -28.043469 10.877800 46.862230 18.606006 -6.392631 -1.061008 44.388224 -0.543660 -2.880841 8.748624 -0.313316 0.001617 -0.408716 -0.023179 0.042117 0.028041 -0.100158 0.058175 -0.011955 0.018772 
-0.562106 17.734314 1.226758 0.543722 -2.103685 -0.282690 -14.333472 4.698551 4.179957 -1.562003 6.002880 -19.009786 -12.175699 -1.873224 17.016488 -0.353646 8.564400 8.334656 -0.339224 0.055349 -29.360099 17.084662 -12.418609 6.255366 4.047806 -21.536343 -29.013069 -28.444022 -19.163995 37.549808 -11.808777 -56.724502 49.158408 -0.218551 0.002722 -54.093092 0.363083 -6.681510 -2.822316 -3.977462 2.995946 -2.240325 -6.617166 3.415081 4.352508 9.796224 -10.690413 -11.855445 -1.078056 -0.202651 -0.932592 0.005420 -0.006138 -0.014061 -1.406617 28.015759 8.080472 -68.257223 -3.495003 -25.468265 -7.402080 -16.170617 1.404410 1.786063 4.067101 0.083333 -0.276786 0.104003 0.004321 -0.031995 -0.007466 0.004372 0.006002 0.046248 -0.100930 14.697761 -25.707218 11.764987 49.975415 16.892022 -7.000238 -1.429519 42.683361 -0.270308 -3.318581 8.434816 -0.334405 0.033757 -0.417708 -0.012399 0.043914 0.025676 -0.096954 0.049176 -0.008267 0.017514 
-0.521015 17.863892 1.861498 1.267984 -2.240541 -0.036530 -14.839736 4.064946 6.437115 -2.727531 5.159669 -18.288142 -10.173011 -2.541300 15.611048 -0.800918 9.963901 7.018284 -0.539849 -0.000307 -29.275458 16.372492 -11.102250 5.140196 6.787347 -22.365644 -35.531801 -32.264343 -19.454711 40.957079 -8.541697 -62.673074 41.869641 -0.407958 -0.003962 -48.194495 -0.239097 -5.933494 -3.359367 -3.485165 2.469764 -2.169373 -6.704018 2.997135 4.420878 9.728681 -11.322197 -12.348982 -1.332551 -0.209126 -1.060765 0.007853 -0.005476 -0.011393 -0.775297 27.412745 7.467817 -67.737442 -7.104241 -23.495117 -7.811346 -18.405313 1.764434 2.468559 4.080131 0.112095 -0.283336 0.085849 0.006389 -0.021794 -0.006212 0.008687 0.011463 0.049530 -0.098200 14.514610 -24.418809 11.004709 54.497916 13.819630 -6.719797 -1.095907 41.430322 -0.003444 -3.376606 8.017486 -0.326239 0.104898 -0.360524 -0.007288 0.036760 0.022720 -0.093314 0.044583 0.001326 0.014033 
-0.467022 17.966320 2.425504 1.005102 -2.007009 0.885301 -14.638333 3.655225 8.180110 -3.359717 3.712778 -16.792657 -8.609082 -3.336400 12.182111 -1.133351 11.286501 6.497687 -0.791493 -0.044630 -29.441161 16.188642 -9.443114 4.102706 8.657861 -21.946882 -41.829748 -30.294721 -17.360886 45.027622 -2.892045 -59.850263 32.710006 -0.619068 0.044480 -42.120352 0.602457 -5.232957 -4.676006 -3.273554 2.260014 -2.301983 -6.705833 2.178493 4.620548 10.031128 -12.044558 -13.209769 -1.467226 -0.216847 -1.189109 0.006315 -0.009102 -0.003820 0.131689 26.115133 6.718999 -67.132380 -10.187705 -21.425822 -8.085345 -22.200954 2.151251 3.341299 4.005391 0.137537 -0.234065 0.101879 0.011719 -0.014158 -0.005025 0.008531 0.016503 0.051529 -0.090588 13.690045 -23.236944 9.595667 58.880276 10.310208 -5.990547 -1.076961 39.479453 -0.049118 -3.624998 7.417514 -0.326508 0.129454 -0.332091 -0.001712 0.039429 0.023297 -0.090140 0.039533 0.008615 0.016697 
-0.412951 18.041899 2.945387 1.006391 -1.077994 2.046528 -14.731468 3.395192 8.957276 -3.845387 3.103538 -14.426923 -7.416865 -4.346718 7.843191 -1.437750 11.481220 7.157522 -0.799491 -0.100716 -30.170418 13.834246 -7.136307 5.053814 10.278324 -18.650248 -46.640098 -19.106508 -14.396747 49.352676 2.205939 -40.269762 12.981712 -0.760550 0.060856 -36.929414 0.426965 -3.578373 -5.737527 -2.330942 0.630502 -2.032872 -6.448572 1.391064 4.309191 9.613418 -12.838926 -13.091588 -1.806593 -0.243615 -1.075569 0.007814 -0.012662 -0.007255 1.189132 24.583270 6.156390 -64.615033 -11.510295 -18.812270 -9.177828 -28.208899 2.680066 3.806264 3.543134 0.132488 -0.270596 0.079858 0.012669 -0.019322 0.000195 0.005876 0.021111 0.056565 -0.083406 11.820172 -23.688019 8.633665 63.309611 6.911796 -5.774651 -0.261692 37.859137 0.300657 -3.199118 6.867555 -0.280966 0.164115 -0.265135 -0.007783 0.037366 0.020426 -0.083788 0.039762 0.021277 0.017818 
-0.358173 18.099757 3.446297 -0.506415 0.904062 4.067397 -14.426131 3.172128 8.538362 -2.879600 1.938969 -11.263498 -6.169727 -5.847185 2.861813 -1.784002 12.037544 8.273254 -0.723628 -0.124324 -31.149270 12.089723 -3.534095 7.196410 10.527422 -15.638613 -47.450650 -1.566390 -7.637991 44.279821 -0.915069 -16.745441 -8.687832 -0.839540 0.091977 -33.335883 2.357984 -3.460294 -7.917026 -1.934574 0.045809 -2.128037 -6.400652 0.001101 4.333512 9.829022 -13.839225 -13.480597 -1.902560 -0.248828 -1.127694 0.003555 -0.018292 -0.010780 2.713764 21.856486 5.455701 -61.563774 -11.951899 -16.361481 -9.509539 -33.795388 2.958817 4.567245 3.115804 0.125740 -0.258751 0.102523 0.018685 -0.025648 0.001611 0.003705 0.025269 0.063660 -0.078821 11.765545 -24.211921 6.148561 66.571973 3.426771 -5.374997 0.539827 35.550232 0.257111 -2.810874 6.086252 -0.233445 0.169617 -0.182291 -0.016962 0.042774 0.017967 -0.080330 0.039030 0.030252 0.023533 
